<svg xmlns="http://www.w3.org/2000/svg" viewBox="0 0 258.68 27.25"><defs><style>.cls-1{fill:#444;}.cls-2{fill:#61c13a;}</style></defs><title>logo_Ресурс 15</title><g id="Слой_2" data-name="Слой 2"><g id="Слой_2-2" data-name="Слой 2"><path class="cls-1" d="M0,.45H5.8V10.88H16.49V.45h5.8V26.8h-5.8V16.22H5.8V26.8H0Z"/><path class="cls-1" d="M37.12.26h5.35L53.76,26.8H47.7l-2.41-5.91H34.15L31.74,26.8H25.83Zm6.1,15.51-3.5-8.54-3.5,8.54Z"/><path class="cls-1" d="M57.3.45H68.07c6.29,0,10.09,3.73,10.09,9.19,0,6.09-4.75,9.26-10.66,9.26H63.1v7.9H57.3ZM67.69,13.74c2.9,0,4.59-1.73,4.59-4.07,0-2.59-1.8-4-4.7-4H63.1v8.06Z"/><path class="cls-1" d="M81.92.45H92.69c6.29,0,10.09,3.73,10.09,9.19,0,6.09-4.74,9.26-10.65,9.26H87.72v7.9h-5.8ZM92.31,13.74c2.9,0,4.6-1.73,4.6-4.07,0-2.59-1.81-4-4.71-4H87.72v8.06Z"/><path class="cls-1" d="M113.59,16.41,103.46.45h6.78L116.52,11,122.92.45h6.59L119.38,16.3V26.8h-5.79Z"/><path class="cls-1" d="M185.19.45H191V26.8h-5.8Z"/><path class="cls-1" d="M197.05.45h5.34l12.35,16.22V.45h5.72V26.8h-4.93L202.77,10.05V26.8h-5.72Z"/><path class="cls-1" d="M225.1,13.63A13.39,13.39,0,0,1,238.84,0,13.26,13.26,0,0,1,249,4.29l-3.46,4c-2-1.84-3.77-2.94-6.78-2.94-4.44,0-7.64,3.69-7.64,8.29s3.12,8.28,7.64,8.28c3,0,4.86-1.21,6.93-3.09l3.69,3.95c-2.71,2.9-5.73,4.48-10.81,4.48A13.31,13.31,0,0,1,225.1,13.63Z"/><path class="cls-2" d="M173.58,13.81a31.89,31.89,0,0,1-19.49,7.25c-10.73.26-18.2-6.84-18.79-7.31-1.17-.93-1-3.07,0-4.21a3,3,0,0,1,4.23-.12,21.42,21.42,0,0,0,14.85,5.41,24.7,24.7,0,0,0,15.32-5.69,3.13,3.13,0,0,1,4.14.52A3,3,0,0,1,173.58,13.81Z"/><path class="cls-1" d="M252.71,24a3,3,0,0,1,6,0,3,3,0,1,1-6,0Z"/></g></g></svg>